# xmcd
#
# Track frame offsets:
# 182
# 11280
# 22665
# 32702
# 46352
# 58575
# 71862
# 84397
# 95737
# 107685
# 121307
# 134122
# 145630
# 158760
# 168597
# 181687
# 196675
# 209370
# 223185
# 238920
# 250737
# 264762
# 276730
# 287455
# 304622
#
# Disc length: 4237 seconds
#
# Revision: 1
# Processed by: cddbd v1.4PL0 Copyright (c) Steve Scherf et al.
# Submitted via: CedeCatalogueitor 2.5 http://usuarios.lycos.es/kakasboy
#
DISCID=63108b19
DTITLE=Billie Jo Spears - 50 Original Tracks
DYEAR=1993
DGENRE=
TTITLE0=If You Want Me
TTITLE1=Heart Over Mind
TTITLE2=Too Much Is Not Enough
TTITLE3=Mr Walker It´s All Over
TTITLE4=Lonely Hearts Club
TTITLE5=Tips And Tables
TTITLE6=Teardrops Will Kiss The Morning Dew (with Del Reeves)
TTITLE7=True Love
TTITLE8=I´ve Got To Go
TTITLE9=Take Me To Your World
TTITLE10=´57 Chevrolet
TTITLE11=Stand By Your Man
TTITLE12=Love Ain´t Gonna Wait For Us
TTITLE13=The Price I Pay To Stay
TTITLE14=Yesterday
TTITLE15=I Will Survive
TTITLE16=Livin´ Our Love Together
TTITLE17=The Games People Play
TTITLE18=Sing Me An Old Fashioned Song
TTITLE19=Rainy Days And Stormy Nights
TTITLE20=Standing Talls
TTITLE21=Misty Blue
TTITLE22=Your Good Girl´s Gonna Go Bad
TTITLE23=For The Good Times
TTITLE24=What The World Needs Now Is Love
EXTD=2cds. CD2.
EXTT0=
EXTT1=
EXTT2=
EXTT3=
EXTT4=
EXTT5=
EXTT6=
EXTT7=
EXTT8=
EXTT9=
EXTT10=
EXTT11=
EXTT12=
EXTT13=
EXTT14=
EXTT15=
EXTT16=
EXTT17=
EXTT18=
EXTT19=
EXTT20=
EXTT21=
EXTT22=
EXTT23=
EXTT24=
PLAYORDER=
